<svg width="95" height="82" viewBox="0 0 95 82" fill="none" xmlns="http://www.w3.org/2000/svg">
<circle cx="1.54225" cy="1.54225" r="1.54225" transform="matrix(-1 0 0 1 94.676 0)" fill="white" fill-opacity="0.1"/>
<circle cx="1.54225" cy="1.54225" r="1.54225" transform="matrix(-1 0 0 1 81.5915 0)" fill="white" fill-opacity="0.1"/>
<circle cx="1.54225" cy="1.54225" r="1.54225" transform="matrix(-1 0 0 1 68.507 0)" fill="white" fill-opacity="0.1"/>
<circle cx="1.54225" cy="1.54225" r="1.54225" transform="matrix(-1 0 0 1 55.4225 0)" fill="white" fill-opacity="0.1"/>
<circle cx="1.54225" cy="1.54225" r="1.54225" transform="matrix(-1 0 0 1 94.676 13.0845)" fill="white" fill-opacity="0.1"/>
<circle cx="1.54225" cy="1.54225" r="1.54225" transform="matrix(-1 0 0 1 81.5915 13.0845)" fill="white" fill-opacity="0.1"/>
<circle cx="1.54225" cy="1.54225" r="1.54225" transform="matrix(-1 0 0 1 68.507 13.0845)" fill="white" fill-opacity="0.1"/>
<circle cx="1.54225" cy="1.54225" r="1.54225" transform="matrix(-1 0 0 1 55.4225 13.0845)" fill="white" fill-opacity="0.1"/>
<circle cx="1.54225" cy="1.54225" r="1.54225" transform="matrix(-1 0 0 1 94.676 26.1689)" fill="white" fill-opacity="0.1"/>
<circle cx="1.54225" cy="1.54225" r="1.54225" transform="matrix(-1 0 0 1 81.5915 26.1689)" fill="white" fill-opacity="0.1"/>
<circle cx="1.54225" cy="1.54225" r="1.54225" transform="matrix(-1 0 0 1 68.507 26.1689)" fill="white" fill-opacity="0.1"/>
<circle cx="1.54225" cy="1.54225" r="1.54225" transform="matrix(-1 0 0 1 55.4225 26.1689)" fill="white" fill-opacity="0.1"/>
<circle cx="1.54225" cy="1.54225" r="1.54225" transform="matrix(-1 0 0 1 94.676 39.2534)" fill="white" fill-opacity="0.1"/>
<circle cx="1.54225" cy="1.54225" r="1.54225" transform="matrix(-1 0 0 1 81.5915 39.2534)" fill="white" fill-opacity="0.1"/>
<circle cx="1.54225" cy="1.54225" r="1.54225" transform="matrix(-1 0 0 1 68.507 39.2534)" fill="white" fill-opacity="0.1"/>
<circle cx="1.54225" cy="1.54225" r="1.54225" transform="matrix(-1 0 0 1 55.4225 39.2534)" fill="white" fill-opacity="0.1"/>
<circle cx="1.54225" cy="1.54225" r="1.54225" transform="matrix(-1 0 0 1 42.338 39.2534)" fill="white" fill-opacity="0.1"/>
<circle cx="1.54225" cy="1.54225" r="1.54225" transform="matrix(-1 0 0 1 29.2535 39.2534)" fill="white" fill-opacity="0.1"/>
<circle cx="1.54225" cy="1.54225" r="1.54225" transform="matrix(-1 0 0 1 16.169 39.2534)" fill="white" fill-opacity="0.1"/>
<circle cx="1.54225" cy="1.54225" r="1.54225" transform="matrix(-1 0 0 1 3.08447 39.2534)" fill="white" fill-opacity="0.1"/>
<circle cx="1.54225" cy="1.54225" r="1.54225" transform="matrix(-1 0 0 1 94.676 52.3381)" fill="white" fill-opacity="0.1"/>
<circle cx="1.54225" cy="1.54225" r="1.54225" transform="matrix(-1 0 0 1 81.5915 52.3381)" fill="white" fill-opacity="0.1"/>
<circle cx="1.54225" cy="1.54225" r="1.54225" transform="matrix(-1 0 0 1 68.507 52.3381)" fill="white" fill-opacity="0.1"/>
<circle cx="1.54225" cy="1.54225" r="1.54225" transform="matrix(-1 0 0 1 55.4225 52.3381)" fill="white" fill-opacity="0.1"/>
<circle cx="1.54225" cy="1.54225" r="1.54225" transform="matrix(-1 0 0 1 42.338 52.3381)" fill="white" fill-opacity="0.1"/>
<circle cx="1.54225" cy="1.54225" r="1.54225" transform="matrix(-1 0 0 1 29.2535 52.3381)" fill="white" fill-opacity="0.1"/>
<circle cx="1.54225" cy="1.54225" r="1.54225" transform="matrix(-1 0 0 1 16.169 52.3381)" fill="white" fill-opacity="0.1"/>
<circle cx="1.54225" cy="1.54225" r="1.54225" transform="matrix(-1 0 0 1 3.08447 52.3381)" fill="white" fill-opacity="0.1"/>
<circle cx="1.54225" cy="1.54225" r="1.54225" transform="matrix(-1 0 0 1 94.676 65.4226)" fill="white" fill-opacity="0.1"/>
<circle cx="1.54225" cy="1.54225" r="1.54225" transform="matrix(-1 0 0 1 81.5915 65.4226)" fill="white" fill-opacity="0.1"/>
<circle cx="1.54225" cy="1.54225" r="1.54225" transform="matrix(-1 0 0 1 68.507 65.4226)" fill="white" fill-opacity="0.1"/>
<circle cx="1.54225" cy="1.54225" r="1.54225" transform="matrix(-1 0 0 1 55.4225 65.4226)" fill="white" fill-opacity="0.1"/>
<circle cx="1.54225" cy="1.54225" r="1.54225" transform="matrix(-1 0 0 1 42.338 65.4226)" fill="white" fill-opacity="0.1"/>
<circle cx="1.54225" cy="1.54225" r="1.54225" transform="matrix(-1 0 0 1 29.2535 65.4226)" fill="white" fill-opacity="0.1"/>
<circle cx="1.54225" cy="1.54225" r="1.54225" transform="matrix(-1 0 0 1 16.169 65.4226)" fill="white" fill-opacity="0.1"/>
<circle cx="1.54225" cy="1.54225" r="1.54225" transform="matrix(-1 0 0 1 3.08447 65.4226)" fill="white" fill-opacity="0.1"/>
<circle cx="1.54225" cy="1.54225" r="1.54225" transform="matrix(-1 0 0 1 94.676 78.5071)" fill="white" fill-opacity="0.1"/>
<circle cx="1.54225" cy="1.54225" r="1.54225" transform="matrix(-1 0 0 1 81.5915 78.5071)" fill="white" fill-opacity="0.1"/>
<circle cx="1.54225" cy="1.54225" r="1.54225" transform="matrix(-1 0 0 1 68.507 78.5071)" fill="white" fill-opacity="0.1"/>
<circle cx="1.54225" cy="1.54225" r="1.54225" transform="matrix(-1 0 0 1 55.4225 78.5071)" fill="white" fill-opacity="0.1"/>
<circle cx="1.54225" cy="1.54225" r="1.54225" transform="matrix(-1 0 0 1 42.338 78.5071)" fill="white" fill-opacity="0.1"/>
<circle cx="1.54225" cy="1.54225" r="1.54225" transform="matrix(-1 0 0 1 29.2535 78.5071)" fill="white" fill-opacity="0.1"/>
<circle cx="1.54225" cy="1.54225" r="1.54225" transform="matrix(-1 0 0 1 16.169 78.5071)" fill="white" fill-opacity="0.1"/>
<circle cx="1.54225" cy="1.54225" r="1.54225" transform="matrix(-1 0 0 1 3.08447 78.5071)" fill="white" fill-opacity="0.1"/>
</svg>
