<svg width="355" height="180" viewBox="0 0 355 180" fill="none" xmlns="http://www.w3.org/2000/svg">
<circle cx="2.5" cy="2.5" r="2.5" fill="white" fill-opacity="0.06"/>
<circle cx="37.5" cy="2.5" r="2.5" fill="white" fill-opacity="0.06"/>
<circle cx="72.5" cy="2.5" r="2.5" fill="white" fill-opacity="0.06"/>
<circle cx="107.5" cy="2.5" r="2.5" fill="white" fill-opacity="0.06"/>
<circle cx="142.5" cy="2.5" r="2.5" fill="white" fill-opacity="0.06"/>
<circle cx="177.5" cy="2.5" r="2.5" fill="white" fill-opacity="0.06"/>
<circle cx="212.5" cy="2.5" r="2.5" fill="white" fill-opacity="0.06"/>
<circle cx="247.5" cy="2.5" r="2.5" fill="white" fill-opacity="0.06"/>
<circle cx="282.5" cy="2.5" r="2.5" fill="white" fill-opacity="0.06"/>
<circle cx="317.5" cy="2.5" r="2.5" fill="white" fill-opacity="0.06"/>
<circle cx="352.5" cy="2.5" r="2.5" fill="white" fill-opacity="0.06"/>
<circle cx="2.5" cy="37.5" r="2.5" fill="white" fill-opacity="0.06"/>
<circle cx="37.5" cy="37.5" r="2.5" fill="white" fill-opacity="0.06"/>
<circle cx="72.5" cy="37.5" r="2.5" fill="white" fill-opacity="0.06"/>
<circle cx="107.5" cy="37.5" r="2.5" fill="white" fill-opacity="0.06"/>
<circle cx="142.5" cy="37.5" r="2.5" fill="white" fill-opacity="0.06"/>
<circle cx="177.5" cy="37.5" r="2.5" fill="white" fill-opacity="0.06"/>
<circle cx="212.5" cy="37.5" r="2.5" fill="white" fill-opacity="0.06"/>
<circle cx="247.5" cy="37.5" r="2.5" fill="white" fill-opacity="0.06"/>
<circle cx="282.5" cy="37.5" r="2.5" fill="white" fill-opacity="0.06"/>
<circle cx="317.5" cy="37.5" r="2.5" fill="white" fill-opacity="0.06"/>
<circle cx="352.5" cy="37.5" r="2.5" fill="white" fill-opacity="0.06"/>
<circle cx="2.5" cy="72.5" r="2.5" fill="white" fill-opacity="0.06"/>
<circle cx="37.5" cy="72.5" r="2.5" fill="white" fill-opacity="0.06"/>
<circle cx="72.5" cy="72.5" r="2.5" fill="white" fill-opacity="0.06"/>
<circle cx="107.5" cy="72.5" r="2.5" fill="white" fill-opacity="0.06"/>
<circle cx="142.5" cy="72.5" r="2.5" fill="white" fill-opacity="0.06"/>
<circle cx="177.5" cy="72.5" r="2.5" fill="white" fill-opacity="0.06"/>
<circle cx="212.5" cy="72.5" r="2.5" fill="white" fill-opacity="0.06"/>
<circle cx="247.5" cy="72.5" r="2.5" fill="white" fill-opacity="0.06"/>
<circle cx="282.5" cy="72.5" r="2.5" fill="white" fill-opacity="0.06"/>
<circle cx="317.5" cy="72.5" r="2.5" fill="white" fill-opacity="0.06"/>
<circle cx="352.5" cy="72.5" r="2.5" fill="white" fill-opacity="0.06"/>
<circle cx="2.5" cy="107.5" r="2.5" fill="white" fill-opacity="0.06"/>
<circle cx="37.5" cy="107.5" r="2.5" fill="white" fill-opacity="0.06"/>
<circle cx="72.5" cy="107.5" r="2.5" fill="white" fill-opacity="0.06"/>
<circle cx="107.5" cy="107.5" r="2.5" fill="white" fill-opacity="0.06"/>
<circle cx="142.5" cy="107.5" r="2.5" fill="white" fill-opacity="0.06"/>
<circle cx="177.5" cy="107.5" r="2.5" fill="white" fill-opacity="0.06"/>
<circle cx="212.5" cy="107.5" r="2.5" fill="white" fill-opacity="0.06"/>
<circle cx="247.5" cy="107.5" r="2.5" fill="white" fill-opacity="0.06"/>
<circle cx="282.5" cy="107.5" r="2.5" fill="white" fill-opacity="0.06"/>
<circle cx="317.5" cy="107.5" r="2.5" fill="white" fill-opacity="0.06"/>
<circle cx="352.5" cy="107.5" r="2.5" fill="white" fill-opacity="0.06"/>
<circle cx="2.5" cy="142.5" r="2.5" fill="white" fill-opacity="0.06"/>
<circle cx="37.5" cy="142.5" r="2.5" fill="white" fill-opacity="0.06"/>
<circle cx="72.5" cy="142.5" r="2.5" fill="white" fill-opacity="0.06"/>
<circle cx="107.5" cy="142.5" r="2.5" fill="white" fill-opacity="0.06"/>
<circle cx="142.5" cy="142.5" r="2.5" fill="white" fill-opacity="0.06"/>
<circle cx="177.5" cy="142.5" r="2.5" fill="white" fill-opacity="0.06"/>
<circle cx="212.5" cy="142.5" r="2.5" fill="white" fill-opacity="0.06"/>
<circle cx="247.5" cy="142.5" r="2.5" fill="white" fill-opacity="0.06"/>
<circle cx="282.5" cy="142.5" r="2.5" fill="white" fill-opacity="0.06"/>
<circle cx="317.5" cy="142.5" r="2.5" fill="white" fill-opacity="0.06"/>
<circle cx="352.5" cy="142.5" r="2.5" fill="white" fill-opacity="0.06"/>
<circle cx="2.5" cy="177.5" r="2.5" fill="white" fill-opacity="0.06"/>
<circle cx="37.5" cy="177.5" r="2.5" fill="white" fill-opacity="0.06"/>
<circle cx="72.5" cy="177.5" r="2.5" fill="white" fill-opacity="0.06"/>
<circle cx="107.5" cy="177.5" r="2.5" fill="white" fill-opacity="0.06"/>
<circle cx="142.5" cy="177.5" r="2.5" fill="white" fill-opacity="0.06"/>
<circle cx="177.5" cy="177.5" r="2.5" fill="white" fill-opacity="0.06"/>
<circle cx="212.5" cy="177.5" r="2.5" fill="white" fill-opacity="0.06"/>
<circle cx="247.5" cy="177.5" r="2.5" fill="white" fill-opacity="0.06"/>
<circle cx="282.5" cy="177.5" r="2.5" fill="white" fill-opacity="0.06"/>
<circle cx="317.5" cy="177.5" r="2.5" fill="white" fill-opacity="0.06"/>
<circle cx="352.5" cy="177.5" r="2.5" fill="white" fill-opacity="0.06"/>
</svg>
