<svg width="95" height="82" viewBox="0 0 95 82" fill="none" xmlns="http://www.w3.org/2000/svg">
<circle cx="1.54225" cy="1.54225" r="1.54225" transform="matrix(1 0 0 -1 0 81.5916)" fill="white" fill-opacity="0.1"/>
<circle cx="1.54225" cy="1.54225" r="1.54225" transform="matrix(1 0 0 -1 13.0845 81.5916)" fill="white" fill-opacity="0.1"/>
<circle cx="1.54225" cy="1.54225" r="1.54225" transform="matrix(1 0 0 -1 26.169 81.5916)" fill="white" fill-opacity="0.1"/>
<circle cx="1.54225" cy="1.54225" r="1.54225" transform="matrix(1 0 0 -1 39.2535 81.5916)" fill="white" fill-opacity="0.1"/>
<circle cx="1.54225" cy="1.54225" r="1.54225" transform="matrix(1 0 0 -1 0 68.5071)" fill="white" fill-opacity="0.1"/>
<circle cx="1.54225" cy="1.54225" r="1.54225" transform="matrix(1 0 0 -1 13.0845 68.5071)" fill="white" fill-opacity="0.1"/>
<circle cx="1.54225" cy="1.54225" r="1.54225" transform="matrix(1 0 0 -1 26.169 68.5071)" fill="white" fill-opacity="0.1"/>
<circle cx="1.54225" cy="1.54225" r="1.54225" transform="matrix(1 0 0 -1 39.2535 68.5071)" fill="white" fill-opacity="0.1"/>
<circle cx="1.54225" cy="1.54225" r="1.54225" transform="matrix(1 0 0 -1 0 55.4226)" fill="white" fill-opacity="0.1"/>
<circle cx="1.54225" cy="1.54225" r="1.54225" transform="matrix(1 0 0 -1 13.0845 55.4226)" fill="white" fill-opacity="0.1"/>
<circle cx="1.54225" cy="1.54225" r="1.54225" transform="matrix(1 0 0 -1 26.169 55.4226)" fill="white" fill-opacity="0.1"/>
<circle cx="1.54225" cy="1.54225" r="1.54225" transform="matrix(1 0 0 -1 39.2535 55.4226)" fill="white" fill-opacity="0.1"/>
<circle cx="1.54225" cy="1.54225" r="1.54225" transform="matrix(1 0 0 -1 0 42.3381)" fill="white" fill-opacity="0.1"/>
<circle cx="1.54225" cy="1.54225" r="1.54225" transform="matrix(1 0 0 -1 13.0845 42.3381)" fill="white" fill-opacity="0.1"/>
<circle cx="1.54225" cy="1.54225" r="1.54225" transform="matrix(1 0 0 -1 26.169 42.3381)" fill="white" fill-opacity="0.1"/>
<circle cx="1.54225" cy="1.54225" r="1.54225" transform="matrix(1 0 0 -1 39.2535 42.3381)" fill="white" fill-opacity="0.1"/>
<circle cx="1.54225" cy="1.54225" r="1.54225" transform="matrix(1 0 0 -1 52.338 42.3381)" fill="white" fill-opacity="0.1"/>
<circle cx="1.54225" cy="1.54225" r="1.54225" transform="matrix(1 0 0 -1 65.4225 42.3381)" fill="white" fill-opacity="0.1"/>
<circle cx="1.54225" cy="1.54225" r="1.54225" transform="matrix(1 0 0 -1 78.507 42.3381)" fill="white" fill-opacity="0.1"/>
<circle cx="1.54225" cy="1.54225" r="1.54225" transform="matrix(1 0 0 -1 91.5915 42.3381)" fill="white" fill-opacity="0.1"/>
<circle cx="1.54225" cy="1.54225" r="1.54225" transform="matrix(1 0 0 -1 0 29.2534)" fill="white" fill-opacity="0.1"/>
<circle cx="1.54225" cy="1.54225" r="1.54225" transform="matrix(1 0 0 -1 13.0845 29.2534)" fill="white" fill-opacity="0.1"/>
<circle cx="1.54225" cy="1.54225" r="1.54225" transform="matrix(1 0 0 -1 26.169 29.2534)" fill="white" fill-opacity="0.1"/>
<circle cx="1.54225" cy="1.54225" r="1.54225" transform="matrix(1 0 0 -1 39.2535 29.2534)" fill="white" fill-opacity="0.1"/>
<circle cx="1.54225" cy="1.54225" r="1.54225" transform="matrix(1 0 0 -1 52.338 29.2534)" fill="white" fill-opacity="0.1"/>
<circle cx="1.54225" cy="1.54225" r="1.54225" transform="matrix(1 0 0 -1 65.4225 29.2534)" fill="white" fill-opacity="0.1"/>
<circle cx="1.54225" cy="1.54225" r="1.54225" transform="matrix(1 0 0 -1 78.507 29.2534)" fill="white" fill-opacity="0.1"/>
<circle cx="1.54225" cy="1.54225" r="1.54225" transform="matrix(1 0 0 -1 91.5915 29.2534)" fill="white" fill-opacity="0.1"/>
<circle cx="1.54225" cy="1.54225" r="1.54225" transform="matrix(1 0 0 -1 0 16.1689)" fill="white" fill-opacity="0.1"/>
<circle cx="1.54225" cy="1.54225" r="1.54225" transform="matrix(1 0 0 -1 13.0845 16.1689)" fill="white" fill-opacity="0.1"/>
<circle cx="1.54225" cy="1.54225" r="1.54225" transform="matrix(1 0 0 -1 26.169 16.1689)" fill="white" fill-opacity="0.1"/>
<circle cx="1.54225" cy="1.54225" r="1.54225" transform="matrix(1 0 0 -1 39.2535 16.1689)" fill="white" fill-opacity="0.1"/>
<circle cx="1.54225" cy="1.54225" r="1.54225" transform="matrix(1 0 0 -1 52.338 16.1689)" fill="white" fill-opacity="0.1"/>
<circle cx="1.54225" cy="1.54225" r="1.54225" transform="matrix(1 0 0 -1 65.4225 16.1689)" fill="white" fill-opacity="0.1"/>
<circle cx="1.54225" cy="1.54225" r="1.54225" transform="matrix(1 0 0 -1 78.507 16.1689)" fill="white" fill-opacity="0.1"/>
<circle cx="1.54225" cy="1.54225" r="1.54225" transform="matrix(1 0 0 -1 91.5915 16.1689)" fill="white" fill-opacity="0.1"/>
<circle cx="1.54225" cy="1.54225" r="1.54225" transform="matrix(1 0 0 -1 0 3.08447)" fill="white" fill-opacity="0.1"/>
<circle cx="1.54225" cy="1.54225" r="1.54225" transform="matrix(1 0 0 -1 13.0845 3.08447)" fill="white" fill-opacity="0.1"/>
<circle cx="1.54225" cy="1.54225" r="1.54225" transform="matrix(1 0 0 -1 26.169 3.08447)" fill="white" fill-opacity="0.1"/>
<circle cx="1.54225" cy="1.54225" r="1.54225" transform="matrix(1 0 0 -1 39.2535 3.08447)" fill="white" fill-opacity="0.1"/>
<circle cx="1.54225" cy="1.54225" r="1.54225" transform="matrix(1 0 0 -1 52.338 3.08447)" fill="white" fill-opacity="0.1"/>
<circle cx="1.54225" cy="1.54225" r="1.54225" transform="matrix(1 0 0 -1 65.4225 3.08447)" fill="white" fill-opacity="0.1"/>
<circle cx="1.54225" cy="1.54225" r="1.54225" transform="matrix(1 0 0 -1 78.507 3.08447)" fill="white" fill-opacity="0.1"/>
<circle cx="1.54225" cy="1.54225" r="1.54225" transform="matrix(1 0 0 -1 91.5915 3.08447)" fill="white" fill-opacity="0.1"/>
</svg>
