<svg width="95" height="82" viewBox="0 0 95 82" fill="none" xmlns="http://www.w3.org/2000/svg">
<circle cx="93.1338" cy="80.0493" r="1.54225" transform="rotate(180 93.1338 80.0493)" fill="white" fill-opacity="0.1"/>
<circle cx="80.0492" cy="80.0493" r="1.54225" transform="rotate(180 80.0492 80.0493)" fill="white" fill-opacity="0.1"/>
<circle cx="66.9648" cy="80.0493" r="1.54225" transform="rotate(180 66.9648 80.0493)" fill="white" fill-opacity="0.1"/>
<circle cx="53.8802" cy="80.0493" r="1.54225" transform="rotate(180 53.8802 80.0493)" fill="white" fill-opacity="0.1"/>
<circle cx="93.1338" cy="66.9648" r="1.54225" transform="rotate(180 93.1338 66.9648)" fill="white" fill-opacity="0.1"/>
<circle cx="80.0492" cy="66.9648" r="1.54225" transform="rotate(180 80.0492 66.9648)" fill="white" fill-opacity="0.1"/>
<circle cx="66.9648" cy="66.9648" r="1.54225" transform="rotate(180 66.9648 66.9648)" fill="white" fill-opacity="0.1"/>
<circle cx="53.8802" cy="66.9648" r="1.54225" transform="rotate(180 53.8802 66.9648)" fill="white" fill-opacity="0.1"/>
<circle cx="93.1338" cy="53.8804" r="1.54225" transform="rotate(180 93.1338 53.8804)" fill="white" fill-opacity="0.1"/>
<circle cx="80.0492" cy="53.8804" r="1.54225" transform="rotate(180 80.0492 53.8804)" fill="white" fill-opacity="0.1"/>
<circle cx="66.9648" cy="53.8804" r="1.54225" transform="rotate(180 66.9648 53.8804)" fill="white" fill-opacity="0.1"/>
<circle cx="53.8802" cy="53.8804" r="1.54225" transform="rotate(180 53.8802 53.8804)" fill="white" fill-opacity="0.1"/>
<circle cx="93.1338" cy="40.7959" r="1.54225" transform="rotate(180 93.1338 40.7959)" fill="white" fill-opacity="0.1"/>
<circle cx="80.0492" cy="40.7959" r="1.54225" transform="rotate(180 80.0492 40.7959)" fill="white" fill-opacity="0.1"/>
<circle cx="66.9648" cy="40.7959" r="1.54225" transform="rotate(180 66.9648 40.7959)" fill="white" fill-opacity="0.1"/>
<circle cx="53.8802" cy="40.7959" r="1.54225" transform="rotate(180 53.8802 40.7959)" fill="white" fill-opacity="0.1"/>
<circle cx="40.7958" cy="40.7959" r="1.54225" transform="rotate(180 40.7958 40.7959)" fill="white" fill-opacity="0.1"/>
<circle cx="27.7112" cy="40.7959" r="1.54225" transform="rotate(180 27.7112 40.7959)" fill="white" fill-opacity="0.1"/>
<circle cx="14.6268" cy="40.7959" r="1.54225" transform="rotate(180 14.6268 40.7959)" fill="white" fill-opacity="0.1"/>
<circle cx="1.54222" cy="40.7959" r="1.54225" transform="rotate(180 1.54222 40.7959)" fill="white" fill-opacity="0.1"/>
<circle cx="93.1338" cy="27.7112" r="1.54225" transform="rotate(180 93.1338 27.7112)" fill="white" fill-opacity="0.1"/>
<circle cx="80.0492" cy="27.7112" r="1.54225" transform="rotate(180 80.0492 27.7112)" fill="white" fill-opacity="0.1"/>
<circle cx="66.9648" cy="27.7112" r="1.54225" transform="rotate(180 66.9648 27.7112)" fill="white" fill-opacity="0.1"/>
<circle cx="53.8802" cy="27.7112" r="1.54225" transform="rotate(180 53.8802 27.7112)" fill="white" fill-opacity="0.1"/>
<circle cx="40.7958" cy="27.7112" r="1.54225" transform="rotate(180 40.7958 27.7112)" fill="white" fill-opacity="0.1"/>
<circle cx="27.7112" cy="27.7112" r="1.54225" transform="rotate(180 27.7112 27.7112)" fill="white" fill-opacity="0.1"/>
<circle cx="14.6268" cy="27.7112" r="1.54225" transform="rotate(180 14.6268 27.7112)" fill="white" fill-opacity="0.1"/>
<circle cx="1.54222" cy="27.7112" r="1.54225" transform="rotate(180 1.54222 27.7112)" fill="white" fill-opacity="0.1"/>
<circle cx="93.1338" cy="14.6267" r="1.54225" transform="rotate(180 93.1338 14.6267)" fill="white" fill-opacity="0.1"/>
<circle cx="80.0492" cy="14.6267" r="1.54225" transform="rotate(180 80.0492 14.6267)" fill="white" fill-opacity="0.1"/>
<circle cx="66.9648" cy="14.6267" r="1.54225" transform="rotate(180 66.9648 14.6267)" fill="white" fill-opacity="0.1"/>
<circle cx="53.8802" cy="14.6267" r="1.54225" transform="rotate(180 53.8802 14.6267)" fill="white" fill-opacity="0.1"/>
<circle cx="40.7958" cy="14.6267" r="1.54225" transform="rotate(180 40.7958 14.6267)" fill="white" fill-opacity="0.1"/>
<circle cx="27.7112" cy="14.6267" r="1.54225" transform="rotate(180 27.7112 14.6267)" fill="white" fill-opacity="0.1"/>
<circle cx="14.6268" cy="14.6267" r="1.54225" transform="rotate(180 14.6268 14.6267)" fill="white" fill-opacity="0.1"/>
<circle cx="1.54222" cy="14.6267" r="1.54225" transform="rotate(180 1.54222 14.6267)" fill="white" fill-opacity="0.1"/>
<circle cx="93.1338" cy="1.54222" r="1.54225" transform="rotate(180 93.1338 1.54222)" fill="white" fill-opacity="0.1"/>
<circle cx="80.0492" cy="1.54222" r="1.54225" transform="rotate(180 80.0492 1.54222)" fill="white" fill-opacity="0.1"/>
<circle cx="66.9648" cy="1.54222" r="1.54225" transform="rotate(180 66.9648 1.54222)" fill="white" fill-opacity="0.1"/>
<circle cx="53.8802" cy="1.54222" r="1.54225" transform="rotate(180 53.8802 1.54222)" fill="white" fill-opacity="0.1"/>
<circle cx="40.7958" cy="1.54222" r="1.54225" transform="rotate(180 40.7958 1.54222)" fill="white" fill-opacity="0.1"/>
<circle cx="27.7112" cy="1.54222" r="1.54225" transform="rotate(180 27.7112 1.54222)" fill="white" fill-opacity="0.1"/>
<circle cx="14.6268" cy="1.54222" r="1.54225" transform="rotate(180 14.6268 1.54222)" fill="white" fill-opacity="0.1"/>
<circle cx="1.54222" cy="1.54222" r="1.54225" transform="rotate(180 1.54222 1.54222)" fill="white" fill-opacity="0.1"/>
</svg>
