<svg width="176" height="51" viewBox="0 0 176 51" fill="none" xmlns="http://www.w3.org/2000/svg">
    <path d="M174.328 45.0456C174.328 47.7534 172.096 49.9467 169.336 49.9467H5.97969C3.22082 49.9467 0.981445 47.7534 0.981445 45.0456V5.96162C0.981445 3.25518 3.22082 1.0542 5.97969 1.0542H169.335C172.096 1.0542 174.326 3.25518 174.326 5.96162L174.328 45.0456Z" fill="black" />
    <path d="M168.809 1.11325C171.815 1.11325 174.261 3.50607 174.261 6.44669V44.554C174.261 47.4947 171.815 49.8875 168.809 49.8875H6.49993C3.49397 49.8875 1.04797 47.4947 1.04797 44.554V6.44669C1.04797 3.50607 3.49397 1.11325 6.49993 1.11325H168.809ZM168.809 0.0954666H6.49993C2.93076 0.0954666 0.00756836 2.9551 0.00756836 6.44669V44.554C0.00756836 48.0456 2.93076 50.9053 6.49993 50.9053H168.809C172.378 50.9053 175.301 48.0456 175.301 44.554V6.44669C175.301 2.9551 172.378 0.0954666 168.809 0.0954666Z" fill="#A6A6A6" />
    <path d="M39.1279 25.2256C39.0902 21.1316 42.5546 19.1399 42.713 19.0471C40.751 16.2488 37.7099 15.8664 36.6413 15.836C34.0872 15.573 31.6097 17.331 30.3087 17.331C28.9816 17.331 26.9781 15.8614 24.8187 15.9045C22.04 15.9465 19.4404 17.5203 18.0147 19.9642C15.0724 24.9474 17.2668 32.2704 20.0858 36.2983C21.4959 38.271 23.1437 40.4736 25.3004 40.3961C27.4105 40.311 28.1986 39.0802 30.7449 39.0802C33.2679 39.0802 34.008 40.3961 36.2076 40.3466C38.4722 40.311 39.8979 38.365 41.2587 36.3745C42.8883 34.1135 43.5427 31.8868 43.5687 31.7724C43.5154 31.7547 39.1707 30.1326 39.1279 25.2256Z" fill="#FFFFFB" />
    <path d="M34.9728 13.1862C36.1076 11.7978 36.8841 9.90899 36.6686 7.99219C35.026 8.06332 32.9718 9.10365 31.7889 10.4615C30.7423 11.6581 29.8074 13.6194 30.049 15.4638C31.8941 15.5984 33.7886 14.553 34.9728 13.1862Z" fill="#FFFFFB" />
    <path d="M63.6977 12.8093C63.6977 14.3044 63.2394 15.4298 62.3239 16.1856C61.476 16.883 60.2711 17.2323 58.7103 17.2323C57.9364 17.2323 57.2742 17.1993 56.7197 17.1332V8.96426C57.443 8.84993 58.2221 8.7915 59.0635 8.7915C60.5502 8.7915 61.6708 9.10779 62.4265 9.74038C63.2731 10.4555 63.6977 11.4781 63.6977 12.8093ZM62.2629 12.8461C62.2629 11.8769 62.0006 11.1338 61.476 10.6156C60.9515 10.0986 60.1854 9.83946 59.1764 9.83946C58.7479 9.83946 58.3831 9.8674 58.0805 9.92583V16.1361C58.248 16.1615 58.5545 16.1729 58.9998 16.1729C60.0412 16.1729 60.845 15.8896 61.4111 15.3231C61.9772 14.7566 62.2629 13.9309 62.2629 12.8461Z" fill="#FFFFFB" />
    <path d="M71.3054 14.1152C71.3054 15.0361 71.0366 15.7907 70.499 16.3826C69.9355 16.991 69.1888 17.2946 68.2565 17.2946C67.358 17.2946 66.6425 17.0037 66.1089 16.4194C65.5765 15.8364 65.3103 15.1009 65.3103 14.2143C65.3103 13.287 65.5843 12.5261 66.1348 11.9355C66.6854 11.3448 67.4255 11.0488 68.3578 11.0488C69.2564 11.0488 69.9783 11.3397 70.525 11.9228C71.0444 12.4893 71.3054 13.2209 71.3054 14.1152ZM69.8939 14.1584C69.8939 13.6058 69.7719 13.132 69.529 12.737C69.2434 12.2594 68.837 12.0206 68.3085 12.0206C67.7618 12.0206 67.3463 12.2594 67.0606 12.737C66.8165 13.132 66.6958 13.6135 66.6958 14.1825C66.6958 14.7351 66.8178 15.2089 67.0606 15.6039C67.3554 16.0815 67.7657 16.3203 68.2955 16.3203C68.8149 16.3203 69.2226 16.0777 69.5161 15.5912C69.768 15.1886 69.8939 14.7109 69.8939 14.1584Z" fill="#FFFFFB" />
    <path d="M81.5063 11.1707L79.591 17.1586H78.3445L77.5511 14.5584C77.3499 13.9093 77.1862 13.264 77.059 12.6238H77.0343C76.9162 13.2818 76.7526 13.9258 76.5422 14.5584L75.6995 17.1586H74.4387L72.6377 11.1707H74.0361L74.7282 14.0173C74.8957 14.6905 75.0334 15.332 75.1437 15.9392H75.1684C75.2697 15.4387 75.4372 14.801 75.6735 14.03L76.5422 11.1719H77.6511L78.4834 13.969C78.6847 14.6511 78.8483 15.3078 78.9742 15.9404H79.0119C79.1041 15.3244 79.243 14.6676 79.4274 13.969L80.1701 11.1719H81.5063V11.1707Z" fill="#FFFFFB" />
    <path d="M88.5608 17.1586H87.2V13.729C87.2 12.6721 86.7897 12.1437 85.9665 12.1437C85.5627 12.1437 85.2368 12.2885 84.9835 12.5794C84.7329 12.8703 84.6057 13.2132 84.6057 13.6057V17.1573H83.2449V12.8817C83.2449 12.3558 83.228 11.7855 83.1956 11.1681H84.3914L84.4551 12.1043H84.4927C84.6511 11.8134 84.8875 11.5733 85.1978 11.3815C85.5666 11.158 85.9795 11.0449 86.4313 11.0449C87.0027 11.0449 87.4779 11.2253 87.8558 11.5873C88.3258 12.0306 88.5608 12.6924 88.5608 13.5714V17.1586Z" fill="#FFFFFB" />
    <path d="M92.3133 17.1586H90.9539V8.4231H92.3133V17.1586Z" fill="#FFFFFB" />
    <path d="M100.325 14.1152C100.325 15.0361 100.056 15.7907 99.5188 16.3826C98.9552 16.991 98.2073 17.2946 97.2763 17.2946C96.3765 17.2946 95.661 17.0037 95.1286 16.4194C94.5963 15.8364 94.3301 15.1009 94.3301 14.2143C94.3301 13.287 94.6041 12.5261 95.1546 11.9355C95.7052 11.3448 96.4453 11.0488 97.3763 11.0488C98.2761 11.0488 98.9968 11.3397 99.5447 11.9228C100.064 12.4893 100.325 13.2209 100.325 14.1152ZM98.9124 14.1584C98.9124 13.6058 98.7903 13.132 98.5475 12.737C98.2632 12.2594 97.8554 12.0206 97.3282 12.0206C96.7803 12.0206 96.3648 12.2594 96.0804 12.737C95.8363 13.132 95.7156 13.6135 95.7156 14.1825C95.7156 14.7351 95.8376 15.2089 96.0804 15.6039C96.3752 16.0815 96.7855 16.3203 97.3153 16.3203C97.8347 16.3203 98.2411 16.0777 98.5345 15.5912C98.7877 15.1886 98.9124 14.7109 98.9124 14.1584Z" fill="#FFFFFB" />
    <path d="M106.911 17.1587H105.689L105.588 16.469H105.55C105.132 17.019 104.536 17.2946 103.762 17.2946C103.184 17.2946 102.717 17.113 102.365 16.7522C102.045 16.4245 101.886 16.0168 101.886 15.5328C101.886 14.8011 102.197 14.2435 102.825 13.8573C103.45 13.4712 104.331 13.2819 105.464 13.2908V13.179C105.464 12.3902 105.041 11.9964 104.193 11.9964C103.589 11.9964 103.057 12.145 102.597 12.4397L102.321 11.5658C102.889 11.2216 103.592 11.0488 104.42 11.0488C106.02 11.0488 106.823 11.8745 106.823 13.5258V15.731C106.823 16.3292 106.852 16.8056 106.911 17.1587ZM105.498 15.1009V14.1774C103.997 14.152 103.247 14.5547 103.247 15.3842C103.247 15.6967 103.332 15.9304 103.508 16.0866C103.683 16.2429 103.906 16.3203 104.172 16.3203C104.471 16.3203 104.75 16.2276 105.005 16.0434C105.26 15.858 105.418 15.623 105.476 15.3346C105.49 15.2699 105.498 15.1911 105.498 15.1009Z" fill="#FFFFFB" />
    <path d="M114.643 17.1586H113.436L113.372 16.197H113.335C112.949 16.9287 112.292 17.2945 111.369 17.2945C110.631 17.2945 110.017 17.0112 109.53 16.4447C109.043 15.8782 108.8 15.1427 108.8 14.2395C108.8 13.2704 109.064 12.4853 109.594 11.8858C110.107 11.3269 110.735 11.0474 111.483 11.0474C112.305 11.0474 112.88 11.318 113.207 11.8604H113.233V8.4231H114.595V15.5454C114.595 16.1284 114.611 16.6657 114.643 17.1586ZM113.233 14.6333V13.6349C113.233 13.4622 113.22 13.3224 113.196 13.2157C113.119 12.8956 112.954 12.6263 112.703 12.4091C112.45 12.1919 112.145 12.0827 111.793 12.0827C111.286 12.0827 110.888 12.2796 110.596 12.6746C110.307 13.0697 110.16 13.5739 110.16 14.19C110.16 14.7819 110.299 15.2621 110.578 15.6317C110.873 16.0255 111.27 16.2224 111.767 16.2224C112.214 16.2224 112.571 16.0585 112.842 15.7295C113.105 15.426 113.233 15.0601 113.233 14.6333Z" fill="#FFFFFB" />
    <path d="M126.281 14.1152C126.281 15.0361 126.013 15.7907 125.475 16.3826C124.912 16.991 124.166 17.2946 123.233 17.2946C122.335 17.2946 121.62 17.0037 121.085 16.4194C120.553 15.8364 120.286 15.1009 120.286 14.2143C120.286 13.287 120.56 12.5261 121.111 11.9355C121.661 11.3448 122.402 11.0488 123.335 11.0488C124.232 11.0488 124.956 11.3397 125.501 11.9228C126.02 12.4893 126.281 13.2209 126.281 14.1152ZM124.871 14.1584C124.871 13.6058 124.749 13.132 124.506 12.737C124.219 12.2594 123.814 12.0206 123.285 12.0206C122.739 12.0206 122.324 12.2594 122.037 12.737C121.793 13.132 121.672 13.6135 121.672 14.1825C121.672 14.7351 121.794 15.2089 122.037 15.6039C122.331 16.0815 122.742 16.3203 123.272 16.3203C123.791 16.3203 124.2 16.0777 124.493 15.5912C124.744 15.1886 124.871 14.7109 124.871 14.1584Z" fill="#FFFFFB" />
    <path d="M133.598 17.1586H132.239V13.729C132.239 12.6721 131.829 12.1437 131.004 12.1437C130.6 12.1437 130.274 12.2885 130.022 12.5794C129.77 12.8703 129.645 13.2132 129.645 13.6057V17.1573H128.282V12.8817C128.282 12.3558 128.267 11.7855 128.234 11.1681H129.429L129.493 12.1043H129.53C129.69 11.8134 129.926 11.5733 130.235 11.3815C130.605 11.158 131.017 11.0449 131.47 11.0449C132.04 11.0449 132.515 11.2253 132.893 11.5873C133.365 12.0306 133.598 12.6924 133.598 13.5714V17.1586Z" fill="#FFFFFB" />
    <path d="M142.756 12.1679H141.258V15.0767C141.258 15.816 141.524 16.1856 142.051 16.1856C142.296 16.1856 142.498 16.1653 142.658 16.1234L142.693 17.1332C142.424 17.2323 142.071 17.2819 141.636 17.2819C141.098 17.2819 140.68 17.1218 140.378 16.8017C140.074 16.4816 139.923 15.943 139.923 15.1872V12.1679H139.029V11.1707H139.923V10.0732L141.257 9.67944V11.1694H142.755V12.1679H142.756Z" fill="#FFFFFB" />
    <path d="M149.96 17.1586H148.598V13.7543C148.598 12.681 148.188 12.1436 147.366 12.1436C146.735 12.1436 146.304 12.4549 146.068 13.0773C146.027 13.2081 146.004 13.3682 146.004 13.5562V17.1573H144.645V8.4231H146.004V12.0319H146.03C146.459 11.3751 147.073 11.0474 147.869 11.0474C148.432 11.0474 148.898 11.2278 149.268 11.5898C149.729 12.0408 149.96 12.7114 149.96 13.5981V17.1586Z" fill="#FFFFFB" />
    <path d="M157.392 13.8814C157.392 14.1202 157.373 14.3209 157.341 14.4848H153.26C153.278 15.0767 153.473 15.5277 153.851 15.8402C154.196 16.1196 154.641 16.2593 155.187 16.2593C155.791 16.2593 156.341 16.1653 156.837 15.9761L157.05 16.9008C156.47 17.1472 155.787 17.2704 154.996 17.2704C154.048 17.2704 153.301 16.9973 152.761 16.4511C152.218 15.9049 151.95 15.172 151.95 14.2523C151.95 13.3492 152.2 12.5972 152.705 11.9977C153.233 11.3575 153.945 11.0374 154.845 11.0374C155.726 11.0374 156.394 11.3575 156.846 11.9977C157.211 12.5058 157.392 13.1345 157.392 13.8814ZM156.093 13.5372C156.104 13.1421 156.014 12.8017 155.83 12.5146C155.593 12.145 155.234 11.9596 154.747 11.9596C154.303 11.9596 153.94 12.1399 153.664 12.5019C153.438 12.7903 153.304 13.1345 153.26 13.5372H156.093Z" fill="#FFFFFB" />
    <path d="M69.664 40.1134H66.7152L65.0999 35.148H59.4853L57.9466 40.1134H55.0757L60.6383 23.209H64.0741L69.664 40.1134ZM64.613 33.0648L63.1522 28.6507C62.9977 28.1998 62.7081 27.1379 62.2809 25.4662H62.229C62.0589 26.1852 61.7849 27.2471 61.4083 28.6507L59.9735 33.0648H64.613Z" fill="#FFFFFB" />
    <path d="M83.9694 33.8688C83.9694 35.9419 83.3968 37.5805 82.2515 38.7834C81.2257 39.8542 79.9519 40.389 78.4314 40.389C76.7901 40.389 75.6111 39.8123 74.8931 38.6589H74.8411V45.08H72.0728V31.9368C72.0728 30.6335 72.0377 29.2959 71.9702 27.9241H74.4049L74.5594 29.8561H74.6113C75.5345 28.4004 76.9356 27.6738 78.8158 27.6738C80.2856 27.6738 81.5127 28.2416 82.4943 29.3785C83.4786 30.5166 83.9694 32.013 83.9694 33.8688ZM81.1491 33.9679C81.1491 32.7815 80.8764 31.8034 80.3285 31.0336C79.7299 30.2308 78.9261 29.8294 77.9185 29.8294C77.2355 29.8294 76.6148 30.053 76.0604 30.4938C75.5047 30.9384 75.1411 31.5189 74.971 32.2378C74.8853 32.5732 74.8424 32.8475 74.8424 33.0635V35.0959C74.8424 35.9825 75.1203 36.7307 75.6761 37.3417C76.2318 37.9527 76.9538 38.2575 77.8419 38.2575C78.8846 38.2575 79.6961 37.8637 80.2765 37.0787C80.8583 36.2924 81.1491 35.2559 81.1491 33.9679Z" fill="#FFFFFB" />
    <path d="M98.3006 33.8688C98.3006 35.9419 97.728 37.5805 96.5815 38.7834C95.557 39.8542 94.2832 40.389 92.7626 40.389C91.1214 40.389 89.9424 39.8123 89.2256 38.6589H89.1737V45.08H86.4053V31.9368C86.4053 30.6335 86.3703 29.2959 86.3027 27.9241H88.7374L88.8919 29.8561H88.9438C89.8657 28.4004 91.2668 27.6738 93.1483 27.6738C94.6169 27.6738 95.8439 28.2416 96.8282 29.3785C97.8085 30.5166 98.3006 32.013 98.3006 33.8688ZM95.4803 33.9679C95.4803 32.7815 95.2064 31.8034 94.6584 31.0336C94.0598 30.2308 93.2587 29.8294 92.2497 29.8294C91.5655 29.8294 90.9461 30.053 90.3903 30.4938C89.8346 30.9384 89.4723 31.5189 89.3022 32.2378C89.2178 32.5732 89.1737 32.8475 89.1737 33.0635V35.0959C89.1737 35.9825 89.4515 36.7307 90.0047 37.3417C90.5604 37.9514 91.2824 38.2575 92.1731 38.2575C93.2158 38.2575 94.0274 37.8637 94.6078 37.0787C95.1895 36.2924 95.4803 35.2559 95.4803 33.9679Z" fill="#FFFFFB" />
    <path d="M114.324 35.3728C114.324 36.8107 113.813 37.9806 112.789 38.8837C111.663 39.8707 110.096 40.3635 108.082 40.3635C106.223 40.3635 104.732 40.013 103.604 39.3105L104.245 37.0533C105.46 37.7722 106.794 38.133 108.247 38.133C109.29 38.133 110.101 37.9018 110.684 37.442C111.265 36.9822 111.554 36.3648 111.554 35.595C111.554 34.9091 111.315 34.3312 110.836 33.8624C110.359 33.3937 109.564 32.958 108.452 32.5553C105.427 31.4515 103.915 29.8345 103.915 27.7081C103.915 26.3184 104.445 25.179 105.506 24.2924C106.563 23.4045 107.973 22.9612 109.736 22.9612C111.309 22.9612 112.615 23.2292 113.658 23.764L112.965 25.9717C111.992 25.4534 110.891 25.1943 109.658 25.1943C108.684 25.1943 107.924 25.4293 107.378 25.8967C106.917 26.3146 106.686 26.824 106.686 27.4274C106.686 28.0955 106.95 28.6481 107.479 29.0825C107.94 29.4839 108.778 29.9183 109.993 30.387C111.48 30.9726 112.572 31.6573 113.275 32.4423C113.974 33.2248 114.324 34.2041 114.324 35.3728Z" fill="#FFFFFB" />
    <path d="M123.477 29.9565H120.425V35.8746C120.425 37.3798 120.963 38.1318 122.041 38.1318C122.535 38.1318 122.946 38.0899 123.27 38.0061L123.347 40.0626C122.801 40.262 122.083 40.3624 121.194 40.3624C120.101 40.3624 119.246 40.0359 118.63 39.3843C118.015 38.7314 117.706 37.6364 117.706 36.0981V29.954H115.888V27.9216H117.706V25.6898L120.425 24.887V27.9216H123.477V29.9565Z" fill="#FFFFFB" />
    <path d="M137.244 33.9183C137.244 35.7919 136.696 37.3302 135.603 38.5331C134.457 39.7716 132.935 40.3889 131.038 40.3889C129.209 40.3889 127.754 39.7957 126.668 38.6093C125.583 37.4229 125.04 35.9253 125.04 34.1203C125.04 32.2314 125.598 30.6843 126.719 29.4813C127.837 28.2771 129.346 27.675 131.243 27.675C133.071 27.675 134.542 28.2683 135.652 29.4559C136.715 30.608 137.244 32.0955 137.244 33.9183ZM134.372 34.0059C134.372 32.8818 134.127 31.9177 133.629 31.1136C133.049 30.1406 132.219 29.6554 131.144 29.6554C130.031 29.6554 129.186 30.1419 128.606 31.1136C128.108 31.9189 127.863 32.8983 127.863 34.0568C127.863 35.1809 128.108 36.145 128.606 36.9478C129.204 37.9208 130.04 38.4061 131.119 38.4061C132.176 38.4061 133.006 37.9107 133.605 36.9224C134.115 36.1031 134.372 35.1288 134.372 34.0059Z" fill="#FFFFFB" />
    <path d="M146.243 30.3058C145.969 30.2562 145.677 30.2308 145.37 30.2308C144.396 30.2308 143.643 30.5903 143.113 31.3105C142.653 31.9457 142.421 32.7485 142.421 33.7177V40.1133H139.654L139.68 31.7627C139.68 30.3579 139.645 29.0787 139.576 27.9253H141.988L142.089 30.2575H142.166C142.458 29.456 142.919 28.8107 143.55 28.3267C144.167 27.891 144.833 27.6738 145.551 27.6738C145.807 27.6738 146.038 27.6916 146.243 27.7234V30.3058Z" fill="#FFFFFB" />
    <path d="M158.624 33.4419C158.624 33.9272 158.591 34.3362 158.522 34.6703H150.217C150.25 35.8744 150.651 36.7954 151.422 37.4305C152.122 37.9983 153.027 38.2828 154.139 38.2828C155.368 38.2828 156.49 38.091 157.499 37.7061L157.933 39.5861C156.754 40.0891 155.362 40.3394 153.756 40.3394C151.824 40.3394 150.307 39.783 149.203 38.6715C148.102 37.5601 147.55 36.0675 147.55 34.1952C147.55 32.3571 148.063 30.8265 149.09 29.6058C150.165 28.3025 151.618 27.6509 153.447 27.6509C155.242 27.6509 156.602 28.3025 157.525 29.6058C158.256 30.641 158.624 31.9214 158.624 33.4419ZM155.984 32.7395C156.002 31.9367 155.822 31.2431 155.446 30.6575C154.967 29.9043 154.231 29.5283 153.24 29.5283C152.335 29.5283 151.599 29.8954 151.037 30.6321C150.576 31.2177 150.302 31.9202 150.217 32.7382H155.984V32.7395Z" fill="#FFFFFB" />
    </svg>
    