<svg width="24" height="24" viewBox="0 0 24 24" fill="none" xmlns="http://www.w3.org/2000/svg">
<path d="M6.08938 14.9993C5.71097 14.1487 5.5 13.2024 5.5 12.2052C5.5 8.5016 8.41015 5.49927 12 5.49927C15.5899 5.49927 18.5 8.5016 18.5 12.2052C18.5 13.2024 18.289 14.1487 17.9106 14.9993" stroke="#EAE68B" stroke-width="1.5" stroke-linecap="round"/>
<path d="M12 1.99927V2.99927" stroke="#EAE68B" stroke-width="1.5" stroke-linecap="round" stroke-linejoin="round"/>
<path d="M22 11.9993H21" stroke="#EAE68B" stroke-width="1.5" stroke-linecap="round" stroke-linejoin="round"/>
<path d="M3 11.9993H2" stroke="#EAE68B" stroke-width="1.5" stroke-linecap="round" stroke-linejoin="round"/>
<path d="M19.0704 4.92798L18.3633 5.63509" stroke="#EAE68B" stroke-width="1.5" stroke-linecap="round" stroke-linejoin="round"/>
<path d="M5.6368 5.63607L4.92969 4.92896" stroke="#EAE68B" stroke-width="1.5" stroke-linecap="round" stroke-linejoin="round"/>
<path d="M14.5175 19.3054C15.5279 18.9786 15.9331 18.0538 16.0471 17.1236C16.0811 16.8457 15.8525 16.6152 15.5725 16.6152L8.47734 16.6154C8.18774 16.6154 7.95516 16.8612 7.98974 17.1487C8.10139 18.0771 8.38319 18.7553 9.45394 19.3054M14.5175 19.3054C14.5175 19.3054 9.6302 19.3054 9.45394 19.3054M14.5175 19.3054C14.396 21.2504 13.8343 22.0207 12.0073 21.9991C10.0531 22.0352 9.60352 21.0831 9.45394 19.3054" stroke="#EAE68B" stroke-width="1.5" stroke-linecap="round" stroke-linejoin="round"/>
</svg>
