<svg width="176" height="51" viewBox="0 0 176 51" fill="none" xmlns="http://www.w3.org/2000/svg">
    <path d="M169.103 50.905H6.79388C3.2247 50.905 0.301514 48.0454 0.301514 44.5538V6.44645C0.301514 2.95486 3.2247 0.0952215 6.79388 0.0952215H169.103C172.672 0.0952215 175.595 2.95486 175.595 6.44645V44.5538C175.595 48.0454 172.672 50.905 169.103 50.905Z" fill="black" />
    <path d="M169.103 1.113C172.109 1.113 174.555 3.50583 174.555 6.44645V44.5538C174.555 47.4944 172.109 49.8872 169.103 49.8872H6.79388C3.78791 49.8872 1.34191 47.4944 1.34191 44.5538V6.44645C1.34191 3.50583 3.78791 1.113 6.79388 1.113H169.103ZM169.103 0.0952215H6.79388C3.2247 0.0952215 0.301514 2.95486 0.301514 6.44645V44.5538C0.301514 48.0454 3.2247 50.905 6.79388 50.905H169.103C172.672 50.905 175.595 48.0454 175.595 44.5538V6.44645C175.595 2.95486 172.672 0.0952215 169.103 0.0952215Z" fill="#A6A6A6" />
    <path d="M13.8512 9.67112C13.4698 10.0617 13.249 10.6698 13.249 11.4574V39.5489C13.249 40.3364 13.4698 40.9446 13.8512 41.3352L13.9453 41.4209L30.0366 25.6857V25.3142L13.9453 9.57903L13.8512 9.67112Z" fill="url(#paint0_linear_4382_31567)" />
    <path d="M35.3944 30.9333L30.0366 25.6856V25.3141L35.4009 20.0664L35.521 20.1347L41.8738 23.6707C43.6868 24.6742 43.6868 26.3255 41.8738 27.3354L35.521 30.8651L35.3944 30.9333Z" fill="url(#paint1_linear_4382_31567)" />
    <path d="M35.521 30.8652L30.0365 25.5L13.8511 41.3352C14.4532 41.9544 15.4352 42.0291 16.5519 41.4098L35.521 30.8652Z" fill="url(#paint2_linear_4382_31567)" />
    <path d="M35.521 20.1348L16.5519 9.59018C15.4352 8.97729 14.4532 9.05191 13.8511 9.67116L30.0365 25.5L35.521 20.1348Z" fill="url(#paint3_linear_4382_31567)" />
    <path d="M61.8718 13.1075C61.8718 14.1682 61.5472 15.0176 60.9077 15.6512C60.1724 16.4022 59.2148 16.7801 58.0413 16.7801C56.9198 16.7801 55.9621 16.3959 55.1766 15.6385C54.3894 14.87 53.9966 13.9268 53.9966 12.7979C53.9966 11.669 54.3894 10.7258 55.1766 9.96366C55.9621 9.19992 56.9198 8.81567 58.0413 8.81567C58.5997 8.81567 59.132 8.92841 59.6401 9.138C60.1465 9.34918 60.5587 9.63498 60.8574 9.98747L60.1789 10.6575C59.6579 10.0558 58.9486 9.75883 58.0413 9.75883C57.2233 9.75883 56.514 10.0383 55.9118 10.602C55.3162 11.1672 55.0175 11.8992 55.0175 12.7979C55.0175 13.6966 55.3162 14.4349 55.9118 15.0002C56.514 15.5575 57.2233 15.8433 58.0413 15.8433C58.9097 15.8433 59.6401 15.5575 60.2163 14.9938C60.5961 14.6207 60.8119 14.1062 60.8688 13.4489H58.0413V12.5311H61.8134C61.8588 12.7296 61.8718 12.9217 61.8718 13.1075Z" fill="#FFFFFB" stroke="#FFFFFB" stroke-width="0.0761579" stroke-miterlimit="10" />
    <path d="M67.8561 9.9257H64.3129V12.3392H67.5071V13.2569H64.3129V15.6704H67.8561V16.6056H63.3098V8.99048H67.8561V9.9257Z" fill="#FFFFFB" stroke="#FFFFFB" stroke-width="0.0761579" stroke-miterlimit="10" />
    <path d="M72.0795 16.6056H71.0764V9.9257H68.9031V8.99048H74.2544V9.9257H72.0795V16.6056Z" fill="#FFFFFB" stroke="#FFFFFB" stroke-width="0.0761579" stroke-miterlimit="10" />
    <path d="M78.1272 16.6056V8.99048H79.1286V16.6056H78.1272Z" fill="#FFFFFB" stroke="#FFFFFB" stroke-width="0.0761579" stroke-miterlimit="10" />
    <path d="M83.5677 16.6056H82.5728V9.9257H80.3914V8.99048H85.7492V9.9257H83.5677V16.6056Z" fill="#FFFFFB" stroke="#FFFFFB" stroke-width="0.0761579" stroke-miterlimit="10" />
    <path d="M95.8803 15.6258C95.1126 16.3959 94.1615 16.7801 93.0269 16.7801C91.8859 16.7801 90.9348 16.3959 90.1671 15.6258C89.401 14.8573 89.0195 13.9141 89.0195 12.7979C89.0195 11.6817 89.401 10.7385 90.1671 9.97001C90.9348 9.19992 91.8859 8.81567 93.0269 8.81567C94.155 8.81567 95.1061 9.19992 95.8739 9.97636C96.6464 10.7512 97.0279 11.688 97.0279 12.7979C97.0279 13.9141 96.6464 14.8573 95.8803 15.6258ZM90.9088 14.9875C91.4866 15.5575 92.1894 15.8433 93.0269 15.8433C93.858 15.8433 94.5673 15.5575 95.1386 14.9875C95.7148 14.4175 96.0069 13.6855 96.0069 12.7979C96.0069 11.9103 95.7148 11.1783 95.1386 10.6083C94.5673 10.0383 93.858 9.75248 93.0269 9.75248C92.1894 9.75248 91.4866 10.0383 90.9088 10.6083C90.3326 11.1783 90.0405 11.9103 90.0405 12.7979C90.0405 13.6855 90.3326 14.4175 90.9088 14.9875Z" fill="#FFFFFB" stroke="#FFFFFB" stroke-width="0.0761579" stroke-miterlimit="10" />
    <path d="M98.4351 16.6056V8.99048H99.6524L103.437 14.913H103.481L103.437 13.449V8.99048H104.439V16.6056H103.394L99.43 10.3909H99.3862L99.43 11.8612V16.6056H98.4351Z" fill="#FFFFFB" stroke="#FFFFFB" stroke-width="0.0761579" stroke-miterlimit="10" />
    <path d="M88.7729 27.7261C85.7231 27.7261 83.2317 29.9966 83.2317 33.1294C83.2317 36.2367 85.7231 38.5311 88.7729 38.5311C91.8292 38.5311 94.3207 36.2367 94.3207 33.1294C94.3207 29.9966 91.8292 27.7261 88.7729 27.7261ZM88.7729 36.4034C87.0995 36.4034 85.6598 35.0522 85.6598 33.1294C85.6598 31.1811 87.0995 29.8537 88.7729 29.8537C90.4463 29.8537 91.8925 31.1811 91.8925 33.1294C91.8925 35.0522 90.4463 36.4034 88.7729 36.4034ZM76.6825 27.7261C73.6262 27.7261 71.1413 29.9966 71.1413 33.1294C71.1413 36.2367 73.6262 38.5311 76.6825 38.5311C79.7372 38.5311 82.2238 36.2367 82.2238 33.1294C82.2238 29.9966 79.7372 27.7261 76.6825 27.7261ZM76.6825 36.4034C75.0075 36.4034 73.5629 35.0522 73.5629 33.1294C73.5629 31.1811 75.0075 29.8537 76.6825 29.8537C78.3559 29.8537 79.7956 31.1811 79.7956 33.1294C79.7956 35.0522 78.3559 36.4034 76.6825 36.4034ZM62.2955 29.3821V31.6781H67.9C67.7361 32.9611 67.2978 33.9042 66.6259 34.5616C65.8078 35.3555 64.5337 36.2367 62.2955 36.2367C58.8464 36.2367 56.1456 33.5136 56.1456 30.1395C56.1456 26.7654 58.8464 24.0424 62.2955 24.0424C64.1604 24.0424 65.5173 24.7553 66.5187 25.6794L68.1727 24.0614C66.7719 22.7531 64.9086 21.748 62.2955 21.748C57.5658 21.748 53.5908 25.5127 53.5908 30.1395C53.5908 34.7664 57.5658 38.5311 62.2955 38.5311C64.8518 38.5311 66.7719 37.7118 68.2814 36.1748C69.8282 34.6616 70.3103 32.5339 70.3103 30.8159C70.3103 30.2824 70.2648 29.7918 70.1837 29.3821H62.2955ZM121.126 31.1621C120.67 29.9538 119.263 27.7261 116.396 27.7261C113.556 27.7261 111.191 29.9157 111.191 33.1294C111.191 36.1557 113.532 38.5311 116.669 38.5311C119.206 38.5311 120.67 37.0179 121.272 36.1367L119.389 34.9093C118.761 35.808 117.906 36.4034 116.669 36.4034C115.44 36.4034 114.559 35.8525 113.994 34.7664L121.381 31.7766L121.126 31.1621ZM113.595 32.9611C113.532 30.8779 115.249 29.8109 116.479 29.8109C117.443 29.8109 118.261 30.2824 118.534 30.9573L113.595 32.9611ZM107.591 38.2024H110.019V22.3243H107.591V38.2024ZM103.614 28.9296H103.533C102.988 28.2977 101.948 27.7261 100.63 27.7261C97.8639 27.7261 95.3351 30.1014 95.3351 33.1468C95.3351 36.1748 97.8639 38.5311 100.63 38.5311C101.948 38.5311 102.988 37.9547 103.533 37.3037H103.614V38.0786C103.614 40.1443 102.486 41.2542 100.667 41.2542C99.1834 41.2542 98.2631 40.2062 97.8833 39.325L95.7717 40.1872C96.3804 41.6194 97.9921 43.3818 100.667 43.3818C103.514 43.3818 105.916 41.7432 105.916 37.7562V28.0547H103.614V28.9296ZM100.837 36.4034C99.164 36.4034 97.7632 35.0332 97.7632 33.1468C97.7632 31.2431 99.164 29.8537 100.837 29.8537C102.486 29.8537 103.787 31.2431 103.787 33.1468C103.787 35.0332 102.486 36.4034 100.837 36.4034ZM132.494 22.3243H126.687V38.2024H129.108V32.1862H132.494C135.184 32.1862 137.821 30.2824 137.821 27.2545C137.821 24.2281 135.177 22.3243 132.494 22.3243ZM132.557 29.9776H129.108V24.533H132.557C134.366 24.533 135.398 26.0017 135.398 27.2545C135.398 28.4834 134.366 29.9776 132.557 29.9776ZM147.527 27.6959C145.777 27.6959 143.958 28.4517 143.21 30.1268L145.359 31.0081C145.821 30.1268 146.672 29.841 147.571 29.841C148.827 29.841 150.101 30.5794 150.121 31.8829V32.0497C149.683 31.802 148.745 31.4352 147.59 31.4352C145.276 31.4352 142.918 32.6816 142.918 35.0077C142.918 37.1354 144.813 38.5057 146.944 38.5057C148.574 38.5057 149.473 37.7864 150.038 36.9496H150.121V38.177H152.46V32.0862C152.46 29.271 150.311 27.6959 147.527 27.6959ZM147.235 36.3971C146.443 36.3971 145.339 36.0128 145.339 35.0522C145.339 33.8232 146.716 33.3517 147.907 33.3517C148.973 33.3517 149.473 33.5819 150.121 33.8852C149.931 35.3555 148.637 36.3971 147.235 36.3971ZM160.981 28.0436L158.197 34.9268H158.115L155.237 28.0436H152.625L156.949 37.6626L154.482 43.0151H157.013L163.675 28.0436H160.981ZM139.152 38.2024H141.58V22.3243H139.152V38.2024Z" fill="#FFFFFB" />
    <defs>
        <linearGradient id="paint0_linear_4382_31567" x1="28.6079" y1="39.8414" x2="7.29532" y2="18.0552" gradientUnits="userSpaceOnUse">
    <stop stop-color="#00A0FF"/>
    <stop offset="0.0066" stop-color="#00A1FF"/>
    <stop offset="0.2601" stop-color="#00BEFF"/>
    <stop offset="0.5122" stop-color="#00D2FF"/>
    <stop offset="0.7604" stop-color="#00DFFF"/>
    <stop offset="1" stop-color="#00E3FF"/>
    </linearGradient>
        <linearGradient id="paint1_linear_4382_31567" x1="44.2346" y1="25.4981" x2="12.8156" y2="25.4981" gradientUnits="userSpaceOnUse">
    <stop stop-color="#FFE000"/>
    <stop offset="0.4087" stop-color="#FFBD00"/>
    <stop offset="0.7754" stop-color="#FFA500"/>
    <stop offset="1" stop-color="#FF9C00"/>
    </linearGradient>
        <linearGradient id="paint2_linear_4382_31567" x1="32.5387" y1="22.5834" x2="3.63706" y2="-6.9605" gradientUnits="userSpaceOnUse">
    <stop stop-color="#FF3A44"/>
    <stop offset="1" stop-color="#C31162"/>
    </linearGradient>
        <linearGradient id="paint3_linear_4382_31567" x1="9.77686" y1="50.6811" x2="22.6827" y2="37.4885" gradientUnits="userSpaceOnUse">
    <stop stop-color="#32A071"/>
    <stop offset="0.0685" stop-color="#2DA771"/>
    <stop offset="0.4762" stop-color="#15CF74"/>
    <stop offset="0.8009" stop-color="#06E775"/>
    <stop offset="1" stop-color="#00F076"/>
    </linearGradient>
    </defs>
    </svg>
    