<svg width="18" height="18" viewBox="0 0 18 18" fill="none" xmlns="http://www.w3.org/2000/svg">
<path d="M3.56247 1.40625C3.13978 1.40625 2.7344 1.57416 2.43552 1.87305C2.13663 2.17193 1.96872 2.57731 1.96872 3C1.96872 3.42269 2.13663 3.82807 2.43552 4.12695C2.7344 4.42584 3.13978 4.59375 3.56247 4.59375C3.98516 4.59375 4.39053 4.42584 4.68942 4.12695C4.98831 3.82807 5.15622 3.42269 5.15622 3C5.15622 2.57731 4.98831 2.17193 4.68942 1.87305C4.39053 1.57416 3.98516 1.40625 3.56247 1.40625ZM2.06247 5.90625C2.03761 5.90625 2.01376 5.91613 1.99618 5.93371C1.9786 5.95129 1.96872 5.97514 1.96872 6V15.75C1.96872 15.8017 2.01072 15.8437 2.06247 15.8437H5.06247C5.08733 15.8437 5.11118 15.8339 5.12876 15.8163C5.14634 15.7987 5.15622 15.7749 5.15622 15.75V6C5.15622 5.97514 5.14634 5.95129 5.12876 5.93371C5.11118 5.91613 5.08733 5.90625 5.06247 5.90625H2.06247ZM6.93747 5.90625C6.91261 5.90625 6.88876 5.91613 6.87118 5.93371C6.8536 5.95129 6.84372 5.97514 6.84372 6V15.75C6.84372 15.8017 6.88572 15.8437 6.93747 15.8437H9.93747C9.96233 15.8437 9.98618 15.8339 10.0038 15.8163C10.0213 15.7987 10.0312 15.7749 10.0312 15.75V10.5C10.0312 10.127 10.1794 9.76935 10.4431 9.50563C10.7068 9.24191 11.0645 9.09375 11.4375 9.09375C11.8104 9.09375 12.1681 9.24191 12.4318 9.50563C12.6956 9.76935 12.8437 10.127 12.8437 10.5V15.75C12.8437 15.8017 12.8857 15.8437 12.9375 15.8437H15.9375C15.9623 15.8437 15.9862 15.8339 16.0038 15.8163C16.0213 15.7987 16.0312 15.7749 16.0312 15.75V9.285C16.0312 7.46475 14.4487 6.04125 12.6375 6.2055C12.0771 6.25691 11.5282 6.39558 11.0107 6.6165L10.0312 7.0365V6C10.0312 5.97514 10.0213 5.95129 10.0038 5.93371C9.98618 5.91613 9.96233 5.90625 9.93747 5.90625H6.93747Z" fill="black" fill-opacity="0.39"/>
</svg>
